<?xml version="1.0" encoding="UTF-8" standalone="no"?>
<!-- Created with Inkscape (http://www.inkscape.org/) -->

<svg
   xmlns:dc="http://purl.org/dc/elements/1.1/"
   xmlns:cc="http://creativecommons.org/ns#"
   xmlns:rdf="http://www.w3.org/1999/02/22-rdf-syntax-ns#"
   xmlns:svg="http://www.w3.org/2000/svg"
   xmlns="http://www.w3.org/2000/svg"
   xmlns:sodipodi="http://sodipodi.sourceforge.net/DTD/sodipodi-0.dtd"
   xmlns:inkscape="http://www.inkscape.org/namespaces/inkscape"
   width="64"
   height="128"
   id="svg3956"
   version="1.1"
   inkscape:version="0.48.5 r10040"
   sodipodi:docname="mango.svg">
  <defs
     id="defs3958" />
  <sodipodi:namedview
     id="base"
     pagecolor="#ffffff"
     bordercolor="#666666"
     borderopacity="1.0"
     inkscape:pageopacity="0.0"
     inkscape:pageshadow="2"
     inkscape:zoom="5.6"
     inkscape:cx="-2.1453663"
     inkscape:cy="72.639588"
     inkscape:document-units="px"
     inkscape:current-layer="layer1"
     showgrid="true"
     inkscape:window-width="1680"
     inkscape:window-height="1003"
     inkscape:window-x="-2"
     inkscape:window-y="-3"
     inkscape:window-maximized="1">
    <inkscape:grid
       type="xygrid"
       id="grid3964"
       empspacing="5"
       visible="true"
       enabled="true"
       snapvisiblegridlinesonly="true"
       spacingx="8px"
       spacingy="8px" />
  </sodipodi:namedview>
  <metadata
     id="metadata3961">
    <rdf:RDF>
      <cc:Work
         rdf:about="">
        <dc:format>image/svg+xml</dc:format>
        <dc:type
           rdf:resource="http://purl.org/dc/dcmitype/StillImage" />
        <dc:title></dc:title>
      </cc:Work>
    </rdf:RDF>
  </metadata>
  <g
     inkscape:label="Layer 1"
     inkscape:groupmode="layer"
     id="layer1"
     transform="translate(0,-924.36218)">
    <path
       sodipodi:type="arc"
       style="opacity:0.98999999000000005;fill:#dcbb1f;fill-opacity:1;stroke:none"
       id="path3985"
       sodipodi:cx="40"
       sodipodi:cy="88"
       sodipodi:rx="24"
       sodipodi:ry="40"
       d="m 64,88 a 24,40 0 1 1 -48,0 24,40 0 1 1 48,0 z"
       transform="matrix(1.3333333,0,0,1.3,-21.333333,885.96218)" />
    <path
       sodipodi:type="arc"
       style="opacity:0.98999999;fill:#ebd46b;fill-opacity:1;stroke:none"
       id="path4495"
       sodipodi:cx="52"
       sodipodi:cy="76"
       sodipodi:rx="4"
       sodipodi:ry="28"
       d="m 56,76 a 4,28 0 1 1 -8,0 4,28 0 1 1 8,0 z"
       transform="matrix(2,0,0,1,-48,924.36218)" />
    <path
       sodipodi:type="arc"
       style="opacity:0.98999999000000005;fill:#ffffff;fill-opacity:1;stroke:none"
       id="path4497"
       sodipodi:cx="20"
       sodipodi:cy="48"
       sodipodi:rx="4"
       sodipodi:ry="8"
       d="m 24,48 a 4,8 0 1 1 -8,0 4,8 0 1 1 8,0 z"
       transform="translate(0,924.36218)" />
    <path
       sodipodi:type="arc"
       style="opacity:0.98999999000000005;fill:#ffffff;fill-opacity:1;stroke:none"
       id="path4499"
       sodipodi:cx="36"
       sodipodi:cy="48"
       sodipodi:rx="4"
       sodipodi:ry="8"
       d="m 40,48 a 4,8 0 1 1 -8,0 4,8 0 1 1 8,0 z"
       transform="translate(0,924.36218)" />
    <path
       sodipodi:type="arc"
       style="opacity:0.98999999;fill:#000000;fill-opacity:1;stroke:none"
       id="path4507"
       sodipodi:cx="20"
       sodipodi:cy="52"
       sodipodi:rx="4"
       sodipodi:ry="4"
       d="m 24,52 a 4,4 0 1 1 -8,0 4,4 0 1 1 8,0 z"
       transform="matrix(0.5,0,0,0.5,9.0714286,950.50504)" />
    <path
       transform="matrix(0.5,0,0,0.5,25.142857,950.50504)"
       d="m 24,52 a 4,4 0 1 1 -8,0 4,4 0 1 1 8,0 z"
       sodipodi:ry="4"
       sodipodi:rx="4"
       sodipodi:cy="52"
       sodipodi:cx="20"
       id="path4509"
       style="opacity:0.98999999;fill:#000000;fill-opacity:1;stroke:none"
       sodipodi:type="arc" />
  </g>
</svg>
