<?xml version="1.0" encoding="UTF-8" standalone="no"?>
<!-- Created with Inkscape (http://www.inkscape.org/) -->

<svg
   xmlns:dc="http://purl.org/dc/elements/1.1/"
   xmlns:cc="http://creativecommons.org/ns#"
   xmlns:rdf="http://www.w3.org/1999/02/22-rdf-syntax-ns#"
   xmlns:svg="http://www.w3.org/2000/svg"
   xmlns="http://www.w3.org/2000/svg"
   xmlns:sodipodi="http://sodipodi.sourceforge.net/DTD/sodipodi-0.dtd"
   xmlns:inkscape="http://www.inkscape.org/namespaces/inkscape"
   width="32"
   height="64"
   id="svg4754"
   version="1.1"
   inkscape:version="0.48.5 r10040"
   sodipodi:docname="New document 14">
  <defs
     id="defs4756" />
  <sodipodi:namedview
     id="base"
     pagecolor="#ffffff"
     bordercolor="#666666"
     borderopacity="1.0"
     inkscape:pageopacity="0.0"
     inkscape:pageshadow="2"
     inkscape:zoom="6.8564636"
     inkscape:cx="21.435589"
     inkscape:cy="21.527072"
     inkscape:document-units="px"
     inkscape:current-layer="layer1"
     showgrid="true"
     inkscape:snap-nodes="true"
     inkscape:snap-grids="false"
     inkscape:window-width="1680"
     inkscape:window-height="1003"
     inkscape:window-x="-2"
     inkscape:window-y="-3"
     inkscape:window-maximized="1">
    <inkscape:grid
       type="xygrid"
       id="grid4762"
       empspacing="5"
       visible="true"
       enabled="true"
       snapvisiblegridlinesonly="true"
       spacingx="8px"
       spacingy="8px" />
  </sodipodi:namedview>
  <metadata
     id="metadata4759">
    <rdf:RDF>
      <cc:Work
         rdf:about="">
        <dc:format>image/svg+xml</dc:format>
        <dc:type
           rdf:resource="http://purl.org/dc/dcmitype/StillImage" />
        <dc:title></dc:title>
      </cc:Work>
    </rdf:RDF>
  </metadata>
  <g
     inkscape:label="Layer 1"
     inkscape:groupmode="layer"
     id="layer1"
     transform="translate(0,-988.36218)">
    <path
       style="fill:#789326;fill-opacity:1;stroke:#000000;stroke-width:1;stroke-linecap:butt;stroke-linejoin:miter;stroke-miterlimit:4;stroke-opacity:1;stroke-dasharray:none"
       d="m 21.616549,1036.2647 0.511426,-15.8913 c 2.028012,1.037 4.088363,1.3442 6.558266,0.4058 l -1.601764,15.7936 z"
       id="path4764-6"
       inkscape:connector-curvature="0"
       sodipodi:nodetypes="ccccc" />
    <path
       style="fill:#789326;fill-opacity:1;stroke:#000000;stroke-width:1;stroke-linecap:butt;stroke-linejoin:miter;stroke-miterlimit:4;stroke-opacity:1;stroke-dasharray:none"
       d="m 12.578447,1008.2639 -1.059925,-15.8642 c 2.120488,0.83178 4.201094,0.93399 6.566293,-0.2435 l -0.03475,15.8746 z"
       id="path4764-6-1"
       inkscape:connector-curvature="0"
       sodipodi:nodetypes="ccccc" />
    <path
       sodipodi:nodetypes="cscsc"
       inkscape:connector-curvature="0"
       id="path5341"
       d="m 8.8237772,990.08237 c 2.2053228,0.24338 4.2124038,1.1523 5.3024908,2.29366 0.7678,0.80391 1.142711,1.29894 2.013634,1.94154 -1.244451,-0.36516 -1.661801,-0.38355 -2.46233,-0.50907 -1.996378,-0.31296 -4.3059754,-2.08481 -4.8537948,-3.72613 z"
       style="fill:#7bcd2d;fill-opacity:1;stroke:#000000;stroke-width:0.91083419000000021;stroke-linecap:butt;stroke-linejoin:miter;stroke-miterlimit:4;stroke-opacity:1;stroke-dasharray:none" />
    <path
       style="fill:#789326;fill-opacity:1;stroke:#000000;stroke-width:1;stroke-linecap:butt;stroke-linejoin:miter;stroke-miterlimit:4;stroke-opacity:1;stroke-dasharray:none"
       d="m 12.727973,1022.2365 -0.635935,-15.8868 c 2.09752,0.8881 4.174656,1.0457 6.570459,-0.068 l -0.458619,15.868 z"
       id="path4764-6-6"
       inkscape:connector-curvature="0"
       sodipodi:nodetypes="ccccc" />
    <path
       style="fill:#789326;fill-opacity:1;stroke:#000000;stroke-width:1;stroke-linecap:butt;stroke-linejoin:miter;stroke-miterlimit:4;stroke-opacity:1;stroke-dasharray:none"
       d="m 13.981735,1036.6425 -1.659476,-15.8129 c 2.150443,0.7511 4.233426,0.7743 6.552373,-0.492 l 0.565979,15.8646 z"
       id="path4764-6-9"
       inkscape:connector-curvature="0"
       sodipodi:nodetypes="ccccc" />
    <path
       style="fill:#789326;fill-opacity:1;stroke:#000000;stroke-width:1;stroke-linecap:butt;stroke-linejoin:miter;stroke-miterlimit:4;stroke-opacity:1;stroke-dasharray:none"
       d="m 13.279156,1050.6576 0.46098,-15.8928 c 2.031286,1.0305 4.092609,1.3311 6.55951,0.3848 l -1.551606,15.7986 z"
       id="path4764-6-99"
       inkscape:connector-curvature="0"
       sodipodi:nodetypes="ccccc" />
    <path
       style="fill:#789326;fill-opacity:1;stroke:#000000;stroke-width:1;stroke-linecap:butt;stroke-linejoin:miter;stroke-miterlimit:4;stroke-opacity:1;stroke-dasharray:none"
       d="m 21.888816,1051.2954 -0.912261,-15.8734 c 2.112658,0.8515 4.192219,0.9731 6.568269,-0.1825 l -0.182452,15.8735 z"
       id="path4764"
       inkscape:connector-curvature="0"
       sodipodi:nodetypes="ccccc" />
    <path
       style="fill:#72ba2e;fill-opacity:1;stroke:#000000;stroke-width:1.08294438999999998;stroke-linecap:butt;stroke-linejoin:miter;stroke-miterlimit:4;stroke-opacity:1;stroke-dasharray:none"
       d="m 7.5279845,995.90753 c 2.1908577,-1.46932 4.7117835,-2.1817 6.5774135,-1.97998 1.314042,0.1421 2.034255,0.30461 3.31839,0.22105 -1.410975,0.62202 -1.804362,0.92524 -2.628128,1.42484 -2.054344,1.24585 -5.511643,1.4059 -7.2676755,0.33409 z"
       id="path5337"
       inkscape:connector-curvature="0"
       sodipodi:nodetypes="cscsc" />
    <path
       style="fill:#7bcd2d;fill-opacity:1;stroke:#000000;stroke-width:1.15618383999999996;stroke-linecap:butt;stroke-linejoin:miter;stroke-miterlimit:4;stroke-opacity:1;stroke-dasharray:none"
       d="m 1.8874434,999.33265 c 2.7407136,0.64816 5.1284329,2.10465 6.3249442,3.71145 0.8428093,1.1318 1.2383066,1.8136 2.2358944,2.7582 -1.5111346,-0.653 -2.034072,-0.7409 -3.0232394,-1.023 -2.4666965,-0.7038 -5.1018625,-3.2941 -5.5375992,-5.44665 z"
       id="path5343"
       inkscape:connector-curvature="0"
       sodipodi:nodetypes="cscsc" />
    <path
       sodipodi:nodetypes="cscsc"
       inkscape:connector-curvature="0"
       id="path5339"
       d="m 15.33863,1002.1652 c -1.663743,1.7791 -3.782549,2.9464 -5.5028233,3.1545 -1.2116992,0.1466 -1.8933882,0.1508 -3.030954,0.4941 1.1391953,-0.8541 1.4297404,-1.209 2.0663562,-1.8305 1.5877291,-1.5496 4.6641661,-2.4155 6.4674221,-1.8181 z"
       style="fill:#75c527;fill-opacity:1;stroke:#000000;stroke-width:1;stroke-linecap:butt;stroke-linejoin:miter;stroke-miterlimit:4;stroke-opacity:1;stroke-dasharray:none" />
    <path
       sodipodi:nodetypes="cscsc"
       inkscape:connector-curvature="0"
       id="path5347"
       d="m 12.534102,1000.9227 c -0.979891,1.8037 -2.460761,3.2045 -3.8195108,3.7388 -0.9572314,0.3763 -1.512336,0.5241 -2.3673076,1.0452 0.7481385,-0.9381 0.9098973,-1.2889 1.2973471,-1.9307 0.9665996,-1.6003 3.2921633,-2.9584 4.8894713,-2.8533 z"
       style="fill:#70b42f;fill-opacity:1;stroke:#000000;stroke-width:0.84299999999999986;stroke-linecap:butt;stroke-linejoin:miter;stroke-miterlimit:4;stroke-opacity:1;stroke-dasharray:none" />
    <path
       sodipodi:nodetypes="cscsc"
       inkscape:connector-curvature="0"
       id="path5345"
       d="m 8.731509,997.51744 c 0.7005589,2.3329 0.6436117,4.75136 -0.041915,6.34276 -0.4829237,1.1209 -0.8221366,1.7123 -1.0977552,2.8682 -0.1651894,-1.4144 -0.3256748,-1.844 -0.5424679,-2.7068 -0.5404587,-2.1516 0.2587052,-5.24606 1.6821383,-6.50416 z"
       style="fill:#7ccd30;fill-opacity:1;stroke:#000000;stroke-width:1;stroke-linecap:butt;stroke-linejoin:miter;stroke-miterlimit:4;stroke-opacity:1;stroke-dasharray:none" />
    <path
       style="fill:#789326;fill-opacity:1;stroke:#000000;stroke-width:1;stroke-linecap:butt;stroke-linejoin:miter;stroke-miterlimit:4;stroke-opacity:1;stroke-dasharray:none"
       d="m 4.8768139,1020.055 0.1937069,-15.8983 c 2.0483277,0.9962 4.1144124,1.2622 6.5650642,0.2746 l -1.285772,15.8225 z"
       id="path5335"
       inkscape:connector-curvature="0"
       sodipodi:nodetypes="ccccc" />
    <path
       sodipodi:nodetypes="ccccc"
       inkscape:connector-curvature="0"
       id="path5331"
       d="M 6.2075265,1035.4898 4.631863,1019.6685 c 2.1464244,0.7623 4.2292677,0.7968 6.554881,-0.4572 l 0.481929,15.8673 z"
       style="fill:#789326;fill-opacity:1;stroke:#000000;stroke-width:1;stroke-linecap:butt;stroke-linejoin:miter;stroke-miterlimit:4;stroke-opacity:1;stroke-dasharray:none" />
    <path
       sodipodi:nodetypes="ccccc"
       inkscape:connector-curvature="0"
       id="path5333"
       d="m 5.1487353,1049.9688 0.1483152,-15.899 c 2.0511728,0.9905 4.1179938,1.2505 6.5658135,0.256 l -1.24059,15.826 z"
       style="fill:#789326;fill-opacity:1;stroke:#000000;stroke-width:1;stroke-linecap:butt;stroke-linejoin:miter;stroke-miterlimit:4;stroke-opacity:1;stroke-dasharray:none" />
    <path
       style="fill:#85c527;fill-opacity:1;stroke:#000000;stroke-width:1.18070281000000010;stroke-linecap:butt;stroke-linejoin:miter;stroke-miterlimit:4;stroke-opacity:1;stroke-dasharray:none"
       d="m 23.74512,998.4666 c -2.858731,-0.31548 -5.460484,-1.4937 -6.873551,-2.97324 -0.995289,-1.04209 -1.481281,-1.6838 -2.610248,-2.51679 1.613166,0.47335 2.154172,0.4972 3.191887,0.6599 2.58788,0.40569 5.581781,2.70251 6.291912,4.83013 z"
       id="path5351"
       inkscape:connector-curvature="0"
       sodipodi:nodetypes="cscsc" />
    <path
       sodipodi:nodetypes="cscsc"
       inkscape:connector-curvature="0"
       id="path5353"
       d="m 22.605077,989.76027 c -1.525352,1.71762 -3.494462,2.86942 -5.11113,3.1074 -1.138692,0.16759 -1.781305,0.18812 -2.845437,0.5394 1.053285,-0.83289 1.31856,-1.17452 1.903657,-1.77578 1.459156,-1.49942 4.338335,-2.39043 6.05291,-1.87102 z"
       style="fill:#7bcd2d;fill-opacity:1;stroke:#000000;stroke-width:0.94304549999999998;stroke-linecap:butt;stroke-linejoin:miter;stroke-miterlimit:4;stroke-opacity:1;stroke-dasharray:none" />
    <path
       sodipodi:nodetypes="cscsc"
       inkscape:connector-curvature="0"
       id="path5345-2"
       d="m 17.720094,1021.1781 c 2.212477,-1.0189 4.61521,-1.2996 6.286628,-0.8426 1.177259,0.3221 1.810162,0.5756 2.993205,0.6873 -1.377571,0.3607 -1.78061,0.5796 -2.604769,0.9145 -2.055275,0.8351 -5.230859,0.4751 -6.675066,-0.7592 z"
       style="fill:#7bcd2d;fill-opacity:1;stroke:#000000;stroke-width:1;stroke-linecap:butt;stroke-linejoin:miter;stroke-miterlimit:4;stroke-opacity:1;stroke-dasharray:none" />
    <path
       sodipodi:nodetypes="cscsc"
       inkscape:connector-curvature="0"
       id="path5347-6"
       d="m 19.199687,1014.8216 c 2.756679,0.5212 5.198649,1.8626 6.461886,3.4075 0.88989,1.0882 1.314287,1.7487 2.34981,2.6435 -1.533429,-0.5814 -2.057651,-0.6452 -3.054751,-0.881 -2.486527,-0.5889 -5.226031,-3.0474 -5.756945,-5.17 z"
       style="fill:#7bcd2d;fill-opacity:1;stroke:#000000;stroke-width:1;stroke-linecap:butt;stroke-linejoin:miter;stroke-miterlimit:4;stroke-opacity:1;stroke-dasharray:none" />
    <path
       style="fill:#71be27;fill-opacity:1;stroke:#000000;stroke-width:1;stroke-linecap:butt;stroke-linejoin:miter;stroke-miterlimit:4;stroke-opacity:1;stroke-dasharray:none"
       d="m 19.023889,1019.1926 c 1.9355,-0.4168 3.905043,-0.2723 5.17072,0.2994 0.891475,0.4026 1.357792,0.6773 2.287539,0.929 -1.161156,0.062 -1.519061,0.1615 -2.232883,0.2844 -1.780186,0.3067 -4.266214,-0.4124 -5.225376,-1.5128 z"
       id="path5337-9"
       inkscape:connector-curvature="0"
       sodipodi:nodetypes="cscsc" />
  </g>
</svg>
