<?xml version="1.0" encoding="UTF-8" standalone="no"?>
<!-- Created with Inkscape (http://www.inkscape.org/) -->

<svg
   xmlns:dc="http://purl.org/dc/elements/1.1/"
   xmlns:cc="http://creativecommons.org/ns#"
   xmlns:rdf="http://www.w3.org/1999/02/22-rdf-syntax-ns#"
   xmlns:svg="http://www.w3.org/2000/svg"
   xmlns="http://www.w3.org/2000/svg"
   xmlns:sodipodi="http://sodipodi.sourceforge.net/DTD/sodipodi-0.dtd"
   xmlns:inkscape="http://www.inkscape.org/namespaces/inkscape"
   width="192"
   height="192"
   id="svg2"
   version="1.1"
   inkscape:version="0.48.5 r10040"
   sodipodi:docname="grass.svg"
   inkscape:export-filename="/data/ld/ld31/assets/grass.png"
   inkscape:export-xdpi="90"
   inkscape:export-ydpi="90">
  <defs
     id="defs4" />
  <sodipodi:namedview
     id="base"
     pagecolor="#ffffff"
     bordercolor="#666666"
     borderopacity="1.0"
     inkscape:pageopacity="0.0"
     inkscape:pageshadow="2"
     inkscape:zoom="2.8"
     inkscape:cx="116.33852"
     inkscape:cy="60.438551"
     inkscape:document-units="px"
     inkscape:current-layer="layer1"
     showgrid="true"
     inkscape:window-width="1678"
     inkscape:window-height="996"
     inkscape:window-x="-2"
     inkscape:window-y="0"
     inkscape:window-maximized="0">
    <inkscape:grid
       type="xygrid"
       id="grid2987"
       empspacing="5"
       visible="true"
       enabled="true"
       snapvisiblegridlinesonly="true"
       spacingx="32px"
       spacingy="32px" />
    <inkscape:grid
       type="xygrid"
       id="grid2989"
       empspacing="5"
       visible="true"
       enabled="true"
       snapvisiblegridlinesonly="true"
       color="#ff0000"
       opacity="0.1254902"
       empcolor="#ff0000"
       empopacity="0.25098039"
       spacingx="8px"
       spacingy="8px"
       dotted="true" />
  </sodipodi:namedview>
  <metadata
     id="metadata7">
    <rdf:RDF>
      <cc:Work
         rdf:about="">
        <dc:format>image/svg+xml</dc:format>
        <dc:type
           rdf:resource="http://purl.org/dc/dcmitype/StillImage" />
        <dc:title></dc:title>
      </cc:Work>
    </rdf:RDF>
  </metadata>
  <g
     inkscape:label="Layer 1"
     inkscape:groupmode="layer"
     id="layer1"
     transform="translate(0,-860.36218)">
    <path
       style="fill:#284613;fill-opacity:1;stroke:none"
       d="m 128,924.36219 -32,0 0,8 24,24.00004 8,0 z"
       id="path3931"
       inkscape:connector-curvature="0" />
    <path
       inkscape:connector-curvature="0"
       id="path3929"
       d="m 64,924.36219 0,32.00004 8,0 24,-24.00004 0,-8 z"
       style="fill:#447920;fill-opacity:1;stroke:none" />
    <rect
       style="opacity:0.98999999;fill:#000000;fill-opacity:1;stroke:none"
       id="rect2991"
       width="8"
       height="128"
       x="-40"
       y="892.36218"
       rx="0"
       ry="0" />
    <path
       style="fill:#000000;fill-opacity:1;stroke:none"
       d="m -32,868.36219 -8,0 8,-8 z"
       id="path2993"
       inkscape:connector-curvature="0" />
    <rect
       style="opacity:0.98999999;fill:#000000;fill-opacity:1;stroke:none"
       id="rect3763"
       width="32"
       height="32"
       x="224"
       y="892.36218" />
    <path
       style="fill:#000000;fill-opacity:1;stroke:none"
       d="m 288,892.36219 32,0 -32,32 z"
       id="path3765"
       inkscape:connector-curvature="0" />
    <path
       style="fill:#000000;fill-opacity:1;stroke:none"
       d="m -64,1052.3622 0,32 8,0 24,-24 0,-8 z"
       id="path3767"
       inkscape:connector-curvature="0" />
    <rect
       style="opacity:0.98999999;fill:#559828;fill-opacity:1;stroke:none"
       id="rect3763-5"
       width="32"
       height="32"
       x="224"
       y="956.36218" />
    <path
       inkscape:connector-curvature="0"
       id="path3796"
       d="m 288,956.36223 32,0 -32,32 z"
       style="fill:#559828;fill-opacity:1;stroke:none" />
    <rect
       y="892.36218"
       x="32"
       height="32"
       width="32"
       id="rect3800"
       style="opacity:0.98999999;fill:#559828;fill-opacity:1;stroke:none" />
    <rect
       style="opacity:0.98999999;fill:#559828;fill-opacity:1;stroke:none"
       id="rect3808"
       width="32"
       height="32"
       x="64"
       y="892.36218" />
    <rect
       y="892.36218"
       x="96"
       height="32"
       width="32"
       id="rect3816"
       style="opacity:0.98999999;fill:#559828;fill-opacity:1;stroke:none" />
    <rect
       style="opacity:0.98999999;fill:#559828;fill-opacity:1;stroke:none"
       id="rect3824"
       width="32"
       height="32"
       x="128"
       y="892.36218" />
    <rect
       style="opacity:0.98999999;fill:#559828;fill-opacity:1;stroke:none"
       id="rect3832"
       width="32"
       height="32"
       x="32"
       y="988.36218" />
    <rect
       y="988.36218"
       x="64"
       height="32"
       width="32"
       id="rect3840"
       style="opacity:0.98999999;fill:#559828;fill-opacity:1;stroke:none" />
    <rect
       style="opacity:0.98999999;fill:#559828;fill-opacity:1;stroke:none"
       id="rect3848"
       width="32"
       height="32"
       x="96"
       y="988.36218" />
    <rect
       y="988.36218"
       x="128"
       height="32"
       width="32"
       id="rect3856"
       style="opacity:0.98999999;fill:#559828;fill-opacity:1;stroke:none" />
    <rect
       y="956.36218"
       x="128"
       height="32"
       width="32"
       id="rect3864"
       style="opacity:0.98999999;fill:#559828;fill-opacity:1;stroke:none" />
    <rect
       style="opacity:0.98999999;fill:#559828;fill-opacity:1;stroke:none"
       id="rect3872"
       width="32"
       height="32"
       x="128"
       y="924.36218" />
    <rect
       style="opacity:0.98999999;fill:#559828;fill-opacity:1;stroke:none"
       id="rect3880"
       width="32"
       height="32"
       x="32"
       y="956.36218" />
    <rect
       y="924.36218"
       x="32"
       height="32"
       width="32"
       id="rect3888"
       style="opacity:0.98999999;fill:#559828;fill-opacity:1;stroke:none" />
    <path
       style="fill:#559828;fill-opacity:1;stroke:none"
       d="m 64,924.36219 32,0 -32,32.00004 z"
       id="path3905"
       inkscape:connector-curvature="0" />
    <path
       inkscape:connector-curvature="0"
       id="path3907"
       d="m 128,924.36219 0,32.00004 -32,-32.00004 z"
       style="fill:#559828;fill-opacity:1;stroke:none" />
    <rect
       ry="0"
       rx="0"
       y="892.36218"
       x="24"
       height="128"
       width="8"
       id="rect3913"
       style="opacity:0.98999999;fill:#477e21;fill-opacity:1;stroke:none" />
    <rect
       style="opacity:0.99;fill:#67b931;fill-opacity:1;stroke:none"
       id="rect3915"
       width="8"
       height="128"
       x="160"
       y="892.36218"
       rx="0"
       ry="0" />
    <rect
       ry="0"
       rx="0"
       y="32"
       x="-892.36218"
       height="128"
       width="8"
       id="rect3917"
       style="opacity:0.98999999;fill:#67b931;fill-opacity:1;stroke:none"
       transform="matrix(0,-1,1,0,0,0)" />
    <rect
       transform="matrix(0,-1,1,0,0,0)"
       style="opacity:0.98999999;fill:#305616;fill-opacity:1;stroke:none"
       id="rect3919"
       width="8"
       height="128"
       x="-1028.3622"
       y="32"
       rx="0"
       ry="0" />
    <path
       inkscape:connector-curvature="0"
       id="path3921"
       d="m 32,892.36219 -8,0 8,-8 z"
       style="fill:#5fa92c;fill-opacity:1;stroke:none" />
    <path
       style="fill:#447920;fill-opacity:1;stroke:none"
       d="m 160,1020.3622 8,0 -8,8 z"
       id="path3923"
       inkscape:connector-curvature="0" />
    <path
       inkscape:connector-curvature="0"
       id="path3925"
       d="m 32,1020.3622 0,8 -8,-8 z"
       style="fill:#284613;fill-opacity:1;stroke:none" />
    <path
       style="fill:#99d96e;fill-opacity:1;stroke:none"
       d="m 160,892.36219 0,-8.00002 8,8.00002 z"
       id="path3927"
       inkscape:connector-curvature="0" />
    <path
       style="fill:#000000;stroke:none;stroke-width:1px;stroke-linecap:butt;stroke-linejoin:miter;stroke-opacity:1;fill-opacity:1"
       d="m 0,224 8,0 0,16 8,8 16,0 0,8 -32,0 z"
       id="path4513"
       inkscape:connector-curvature="0"
       transform="translate(0,860.36218)" />
    <path
       style="fill:#99d96e;fill-opacity:1;stroke:none"
       d="m 64,956.36218 8,0 0,16 8,8 16,0 0,8 -32,0 z"
       id="path4513-6"
       inkscape:connector-curvature="0" />
    <path
       inkscape:connector-curvature="0"
       id="path4533"
       d="m 128,956.36218 -8,0 0,16 -8,8 -16,0 0,8 32,0 z"
       style="fill:#5fa92c;fill-opacity:1;stroke:none" />
    <path
       inkscape:connector-curvature="0"
       id="path4535"
       d="m 128,988.36218 -8,0 8,-8 z"
       style="fill:#559828;fill-opacity:1;stroke:none" />
    <path
       style="fill:#559828;fill-opacity:1;stroke:none"
       d="m 64,988.36218 8,0 -8,-8 z"
       id="path4537"
       inkscape:connector-curvature="0" />
    <path
       style="fill:#000000;stroke:none;stroke-width:1px;stroke-linecap:butt;stroke-linejoin:miter;stroke-opacity:1;fill-opacity:1"
       d="m 32,224 8,0 0,16 -8,8 z"
       id="path4539"
       inkscape:connector-curvature="0"
       transform="translate(0,860.36218)" />
    <path
       style="fill:#000000;stroke:none;stroke-width:1px;stroke-linecap:butt;stroke-linejoin:miter;stroke-opacity:1;fill-opacity:1"
       d="m 40,256 8,-8 16,0 0,8 z"
       id="path4541"
       inkscape:connector-curvature="0"
       transform="translate(0,860.36218)" />
    <path
       style="fill:#67b931;fill-opacity:1;stroke:none"
       d="m 64,956.36218 8,0 0,16 -8,8 z"
       id="path4539-6"
       inkscape:connector-curvature="0" />
    <path
       style="fill:#67b931;fill-opacity:1;stroke:none"
       d="m 72,988.36218 8,-8 16,0 0,8 z"
       id="path4541-3"
       inkscape:connector-curvature="0" />
    <path
       inkscape:connector-curvature="0"
       id="path4579"
       d="m 120,988.36218 -8,-8 -16,0 0,8 z"
       style="fill:#67b931;fill-opacity:1;stroke:none" />
    <path
       inkscape:connector-curvature="0"
       id="path4581"
       d="m 128,956.36218 -8,0 0,16 8,8 z"
       style="fill:#477e21;fill-opacity:1;stroke:none" />
  </g>
</svg>
